<?xml version="1.0" encoding="utf-8"?>
<!-- Generator: Adobe Illustrator 24.1.0, SVG Export Plug-In . SVG Version: 6.00 Build 0)  -->
<svg version="1.1" id="Layer_1" xmlns="http://www.w3.org/2000/svg" xmlns:xlink="http://www.w3.org/1999/xlink" x="0px" y="0px"
	 viewBox="0 0 250 100" style="enable-background:new 0 0 250 100;" xml:space="preserve">
<style type="text/css">
	.st0{fill:#1E5085;}
</style>
<path class="st0" d="M29.9,74.6h2.7c0.7,0,1.3,0.1,1.9,0.2c0.6,0.2,1.1,0.4,1.5,0.7c0.4,0.3,0.8,0.7,1,1.2c0.2,0.5,0.4,1,0.4,1.6
	c0,0.5-0.1,1-0.3,1.5c-0.2,0.5-0.5,0.9-0.9,1.2c-0.4,0.3-0.9,0.6-1.4,0.8c-0.6,0.2-1.2,0.3-1.9,0.3h-3V74.6z M31.8,81.3h1
	c0.4,0,0.7-0.1,1-0.2c0.3-0.1,0.6-0.3,0.8-0.6c0.2-0.3,0.4-0.6,0.6-1c0.1-0.4,0.2-0.8,0.2-1.3c0-0.4-0.1-0.8-0.2-1.2
	c-0.1-0.4-0.3-0.7-0.5-0.9c-0.2-0.3-0.5-0.5-0.8-0.6c-0.3-0.1-0.7-0.2-1.1-0.2h-1V81.3z"/>
<rect x="39.1" y="74.6" class="st0" width="1.8" height="7.5"/>
<path class="st0" d="M45.4,82.2c-0.4,0-0.8-0.1-1.2-0.2c-0.3-0.1-0.6-0.3-0.9-0.4c-0.2-0.2-0.4-0.4-0.6-0.7
	c-0.1-0.3-0.2-0.5-0.3-0.8h1.3c0,0.2,0.1,0.4,0.2,0.5c0.1,0.2,0.2,0.3,0.3,0.4c0.1,0.1,0.3,0.2,0.5,0.3c0.2,0.1,0.4,0.1,0.6,0.1
	c0.2,0,0.3,0,0.5,0c0.2,0,0.3-0.1,0.4-0.2c0.1-0.1,0.2-0.2,0.3-0.3c0.1-0.1,0.1-0.3,0.1-0.4c0-0.2-0.1-0.4-0.2-0.6
	c-0.1-0.2-0.3-0.3-0.5-0.5c-0.2-0.1-0.4-0.3-0.6-0.4c-0.2-0.1-0.5-0.2-0.7-0.4c-0.3-0.1-0.5-0.3-0.7-0.4c-0.2-0.1-0.5-0.3-0.6-0.5
	c-0.2-0.2-0.3-0.4-0.5-0.6c-0.1-0.2-0.2-0.5-0.2-0.7c0-0.3,0.1-0.6,0.2-0.8c0.1-0.3,0.3-0.5,0.6-0.7c0.2-0.2,0.6-0.3,0.9-0.4
	c0.4-0.1,0.8-0.2,1.2-0.2c0.4,0,0.7,0.1,1,0.2c0.3,0.1,0.6,0.2,0.8,0.4c0.2,0.2,0.4,0.4,0.6,0.6c0.2,0.2,0.3,0.5,0.4,0.8h-1.2
	c-0.1-0.2-0.1-0.3-0.2-0.5c-0.1-0.2-0.2-0.3-0.3-0.4c-0.1-0.1-0.3-0.2-0.5-0.3c-0.2-0.1-0.4-0.1-0.7-0.1c-0.2,0-0.4,0-0.6,0.1
	c-0.2,0.1-0.3,0.1-0.4,0.2c-0.1,0.1-0.2,0.2-0.2,0.3c0,0.1-0.1,0.2-0.1,0.4c0,0.2,0.1,0.4,0.2,0.5c0.1,0.2,0.3,0.3,0.5,0.5
	c0.2,0.1,0.4,0.3,0.7,0.4c0.2,0.1,0.5,0.3,0.8,0.4c0.3,0.1,0.5,0.3,0.8,0.4c0.2,0.1,0.5,0.3,0.7,0.5c0.2,0.2,0.4,0.4,0.5,0.6
	c0.1,0.2,0.2,0.4,0.2,0.7c0,0.3-0.1,0.6-0.2,0.9c-0.1,0.3-0.3,0.5-0.6,0.7c-0.2,0.2-0.6,0.3-0.9,0.5C46.3,82.2,45.9,82.2,45.4,82.2"
	/>
<path class="st0" d="M49.9,74.6h2.6c0.4,0,0.8,0,1.2,0.1c0.4,0.1,0.7,0.2,1,0.4c0.3,0.2,0.5,0.4,0.6,0.7c0.2,0.3,0.2,0.6,0.2,0.9
	c0,0.4-0.1,0.7-0.2,0.9c-0.2,0.3-0.4,0.5-0.6,0.7c-0.3,0.2-0.5,0.3-0.9,0.4c-0.3,0.1-0.7,0.1-1,0.1h-1.1v3.3h-1.9V74.6z M51.7,78.1
	h0.6c0.2,0,0.4,0,0.5-0.1c0.2-0.1,0.3-0.2,0.4-0.3c0.1-0.1,0.2-0.3,0.2-0.4c0.1-0.2,0.1-0.3,0.1-0.5c0-0.2,0-0.4-0.1-0.6
	c-0.1-0.2-0.2-0.3-0.3-0.4c-0.1-0.1-0.3-0.2-0.4-0.3c-0.2-0.1-0.3-0.1-0.5-0.1h-0.6V78.1z"/>
<polygon class="st0" points="62.7,74.6 62.7,75.2 58.9,75.2 58.9,77.7 62,77.7 62,78.3 58.9,78.3 58.9,81.3 62.7,81.3 62.7,82.1 
	57.1,82.1 57.1,74.6 "/>
<path class="st0" d="M64.2,74.6H67c0.5,0,0.9,0.1,1.3,0.2c0.4,0.1,0.7,0.2,0.9,0.4c0.2,0.2,0.4,0.4,0.5,0.6c0.1,0.2,0.2,0.5,0.2,0.8
	c0,0.2,0,0.4-0.1,0.6c-0.1,0.2-0.2,0.4-0.4,0.5c-0.2,0.2-0.3,0.3-0.5,0.4c-0.2,0.1-0.4,0.2-0.7,0.3l2.7,3.6h-2l-2.5-3.4h-0.3v3.4
	h-1.8V74.6z M66.1,78h0.4c0.2,0,0.4,0,0.6-0.1c0.2-0.1,0.4-0.2,0.5-0.3c0.1-0.1,0.3-0.3,0.3-0.4c0.1-0.2,0.1-0.4,0.1-0.6
	c0-0.2,0-0.4-0.1-0.5c-0.1-0.2-0.1-0.3-0.3-0.4c-0.1-0.1-0.2-0.2-0.4-0.3c-0.1-0.1-0.3-0.1-0.5-0.1h-0.7V78z"/>
<path class="st0" d="M74.3,82.2c-0.4,0-0.8-0.1-1.2-0.2c-0.3-0.1-0.6-0.3-0.9-0.4c-0.2-0.2-0.4-0.4-0.6-0.7
	c-0.1-0.3-0.2-0.5-0.3-0.8h1.3c0,0.2,0.1,0.4,0.2,0.5c0.1,0.2,0.2,0.3,0.3,0.4c0.1,0.1,0.3,0.2,0.5,0.3c0.2,0.1,0.4,0.1,0.6,0.1
	c0.2,0,0.3,0,0.5,0c0.2,0,0.3-0.1,0.4-0.2c0.1-0.1,0.2-0.2,0.3-0.3c0.1-0.1,0.1-0.3,0.1-0.4c0-0.2-0.1-0.4-0.2-0.6
	c-0.1-0.2-0.3-0.3-0.5-0.5c-0.2-0.1-0.4-0.3-0.6-0.4c-0.2-0.1-0.5-0.2-0.7-0.4c-0.3-0.1-0.5-0.3-0.7-0.4c-0.2-0.1-0.5-0.3-0.6-0.5
	c-0.2-0.2-0.3-0.4-0.5-0.6c-0.1-0.2-0.2-0.5-0.2-0.7c0-0.3,0.1-0.6,0.2-0.8c0.1-0.3,0.3-0.5,0.6-0.7c0.2-0.2,0.6-0.3,0.9-0.4
	c0.4-0.1,0.8-0.2,1.2-0.2c0.4,0,0.7,0.1,1,0.2c0.3,0.1,0.6,0.2,0.8,0.4c0.2,0.2,0.4,0.4,0.6,0.6c0.2,0.2,0.3,0.5,0.4,0.8h-1.2
	c-0.1-0.2-0.1-0.3-0.2-0.5c-0.1-0.2-0.2-0.3-0.3-0.4c-0.1-0.1-0.3-0.2-0.5-0.3c-0.2-0.1-0.4-0.1-0.7-0.1c-0.2,0-0.4,0-0.6,0.1
	c-0.2,0.1-0.3,0.1-0.4,0.2c-0.1,0.1-0.2,0.2-0.2,0.3c0,0.1-0.1,0.2-0.1,0.4c0,0.2,0.1,0.4,0.2,0.5c0.1,0.2,0.3,0.3,0.5,0.5
	c0.2,0.1,0.4,0.3,0.7,0.4c0.2,0.1,0.5,0.3,0.8,0.4c0.3,0.1,0.5,0.3,0.8,0.4c0.2,0.1,0.5,0.3,0.7,0.5c0.2,0.2,0.4,0.4,0.5,0.6
	c0.1,0.2,0.2,0.4,0.2,0.7c0,0.3-0.1,0.6-0.2,0.9c-0.1,0.3-0.3,0.5-0.6,0.7c-0.2,0.2-0.6,0.3-0.9,0.5C75.2,82.2,74.8,82.2,74.3,82.2"
	/>
<polygon class="st0" points="84.4,74.6 84.4,75.2 80.6,75.2 80.6,77.7 83.8,77.7 83.8,78.3 80.6,78.3 80.6,81.3 84.4,81.3 
	84.4,82.1 78.8,82.1 78.8,74.6 "/>
<path class="st0" d="M85.9,74.6h2.8c0.5,0,0.9,0.1,1.3,0.2c0.4,0.1,0.7,0.2,0.9,0.4c0.2,0.2,0.4,0.4,0.5,0.6
	c0.1,0.2,0.2,0.5,0.2,0.8c0,0.2,0,0.4-0.1,0.6c-0.1,0.2-0.2,0.4-0.4,0.5c-0.2,0.2-0.3,0.3-0.5,0.4c-0.2,0.1-0.4,0.2-0.7,0.3l2.7,3.6
	h-2l-2.5-3.4h-0.3v3.4h-1.8V74.6z M87.8,78h0.4c0.2,0,0.4,0,0.6-0.1c0.2-0.1,0.4-0.2,0.5-0.3c0.1-0.1,0.3-0.3,0.3-0.4
	c0.1-0.2,0.1-0.4,0.1-0.6c0-0.2,0-0.4-0.1-0.5c-0.1-0.2-0.1-0.3-0.3-0.4c-0.1-0.1-0.2-0.2-0.4-0.3c-0.1-0.1-0.3-0.1-0.5-0.1h-0.7V78
	z"/>
<path class="st0" d="M96.1,82.2c-0.4,0-0.8-0.1-1.2-0.2c-0.3-0.1-0.6-0.3-0.9-0.4c-0.2-0.2-0.4-0.4-0.6-0.7
	c-0.1-0.3-0.2-0.5-0.3-0.8h1.3c0,0.2,0.1,0.4,0.2,0.5c0.1,0.2,0.2,0.3,0.3,0.4c0.1,0.1,0.3,0.2,0.5,0.3c0.2,0.1,0.4,0.1,0.6,0.1
	c0.2,0,0.3,0,0.5,0c0.2,0,0.3-0.1,0.4-0.2c0.1-0.1,0.2-0.2,0.3-0.3c0.1-0.1,0.1-0.3,0.1-0.4c0-0.2-0.1-0.4-0.2-0.6
	c-0.1-0.2-0.3-0.3-0.5-0.5c-0.2-0.1-0.4-0.3-0.6-0.4c-0.2-0.1-0.5-0.2-0.7-0.4c-0.3-0.1-0.5-0.3-0.7-0.4c-0.2-0.1-0.5-0.3-0.6-0.5
	c-0.2-0.2-0.3-0.4-0.5-0.6c-0.1-0.2-0.2-0.5-0.2-0.7c0-0.3,0.1-0.6,0.2-0.8c0.1-0.3,0.3-0.5,0.6-0.7c0.2-0.2,0.6-0.3,0.9-0.4
	c0.4-0.1,0.8-0.2,1.2-0.2c0.4,0,0.7,0.1,1,0.2c0.3,0.1,0.6,0.2,0.8,0.4c0.2,0.2,0.4,0.4,0.6,0.6c0.2,0.2,0.3,0.5,0.4,0.8h-1.2
	c-0.1-0.2-0.1-0.3-0.2-0.5c-0.1-0.2-0.2-0.3-0.3-0.4c-0.1-0.1-0.3-0.2-0.5-0.3c-0.2-0.1-0.4-0.1-0.7-0.1c-0.2,0-0.4,0-0.6,0.1
	c-0.2,0.1-0.3,0.1-0.4,0.2c-0.1,0.1-0.2,0.2-0.2,0.3c0,0.1-0.1,0.2-0.1,0.4c0,0.2,0.1,0.4,0.2,0.5c0.1,0.2,0.3,0.3,0.5,0.5
	c0.2,0.1,0.4,0.3,0.7,0.4c0.2,0.1,0.5,0.3,0.8,0.4c0.3,0.1,0.5,0.3,0.8,0.4c0.2,0.1,0.5,0.3,0.7,0.5c0.2,0.2,0.4,0.4,0.5,0.6
	c0.1,0.2,0.2,0.4,0.2,0.7c0,0.3-0.1,0.6-0.2,0.9c-0.1,0.3-0.3,0.5-0.6,0.7c-0.2,0.2-0.6,0.3-0.9,0.5C97,82.2,96.5,82.2,96.1,82.2"/>
<path class="st0" d="M109.5,82.2c-0.3,0-0.6-0.1-0.9-0.2c-0.3-0.1-0.6-0.3-0.9-0.5c-0.3,0.2-0.7,0.4-1,0.5c-0.4,0.1-0.8,0.2-1.3,0.2
	c-0.4,0-0.7,0-1-0.1c-0.3-0.1-0.5-0.2-0.7-0.4c-0.2-0.2-0.4-0.3-0.5-0.5c-0.1-0.2-0.2-0.4-0.2-0.7c0-0.3,0.1-0.5,0.2-0.7
	c0.1-0.2,0.3-0.4,0.4-0.6c0.2-0.2,0.4-0.4,0.6-0.5c0.2-0.2,0.5-0.3,0.7-0.5c-0.1-0.3-0.2-0.6-0.3-0.8c-0.1-0.3-0.1-0.5-0.1-0.8
	c0-0.3,0.1-0.5,0.2-0.7c0.1-0.2,0.3-0.5,0.4-0.6c0.2-0.2,0.4-0.3,0.7-0.5c0.3-0.1,0.6-0.2,0.9-0.2c0.2,0,0.5,0,0.7,0.1
	c0.2,0.1,0.4,0.1,0.6,0.3c0.2,0.1,0.3,0.3,0.4,0.5c0.1,0.2,0.2,0.4,0.2,0.7c0,0.2-0.1,0.5-0.2,0.7c-0.1,0.2-0.3,0.4-0.5,0.6
	c-0.2,0.2-0.4,0.3-0.7,0.5c-0.3,0.2-0.5,0.3-0.8,0.5c0.1,0.3,0.3,0.7,0.5,1c0.2,0.3,0.4,0.6,0.6,0.9c0.2-0.2,0.3-0.3,0.5-0.5
	c0.1-0.2,0.3-0.4,0.4-0.6c0.1-0.2,0.2-0.4,0.3-0.5c0.1-0.2,0.2-0.3,0.3-0.5l0.8,0.6c-0.3,0.4-0.5,0.8-0.8,1.2
	c-0.3,0.4-0.5,0.7-0.8,1c0.2,0.1,0.4,0.3,0.6,0.3c0.2,0.1,0.4,0.1,0.6,0.1c0.2,0,0.3,0,0.4-0.1c0.1,0,0.2-0.1,0.3-0.2
	c0.1-0.1,0.2-0.2,0.2-0.3c0.1-0.1,0.1-0.3,0.2-0.4l0.7,0.3c-0.2,0.6-0.4,1-0.8,1.2C110.4,82.1,110,82.2,109.5,82.2 M105.7,81.3
	c0.2,0,0.4,0,0.6-0.1c0.2-0.1,0.4-0.2,0.6-0.3c-0.3-0.3-0.5-0.6-0.8-0.9c-0.3-0.3-0.5-0.6-0.7-1c-0.2,0.2-0.4,0.4-0.6,0.6
	c-0.2,0.2-0.2,0.4-0.2,0.6c0,0.1,0,0.3,0.1,0.4c0,0.1,0.1,0.2,0.2,0.3c0.1,0.1,0.2,0.2,0.3,0.2C105.4,81.3,105.5,81.3,105.7,81.3
	 M106.2,76.4c0,0.1,0,0.3,0,0.5c0,0.2,0.1,0.3,0.1,0.5c0.2-0.1,0.3-0.2,0.5-0.3c0.1-0.1,0.3-0.2,0.4-0.3c0.1-0.1,0.2-0.2,0.2-0.4
	c0.1-0.1,0.1-0.3,0.1-0.4c0-0.1,0-0.2,0-0.3c0-0.1-0.1-0.2-0.1-0.2c0-0.1-0.1-0.1-0.2-0.1c-0.1,0-0.1,0-0.2,0c-0.1,0-0.2,0-0.3,0.1
	c-0.1,0.1-0.2,0.1-0.2,0.2c-0.1,0.1-0.1,0.2-0.2,0.4C106.2,76.1,106.2,76.2,106.2,76.4"/>
<path class="st0" d="M115.5,74.6h3.2c0.4,0,0.8,0,1.2,0.1c0.4,0.1,0.7,0.2,0.9,0.4c0.3,0.2,0.5,0.4,0.6,0.6c0.1,0.2,0.2,0.5,0.2,0.8
	c0,0.2,0,0.3-0.1,0.5c0,0.2-0.1,0.3-0.2,0.4c-0.1,0.1-0.2,0.3-0.4,0.4c-0.1,0.1-0.3,0.2-0.5,0.4c0.2,0.1,0.4,0.2,0.6,0.3
	c0.2,0.1,0.3,0.3,0.5,0.4c0.1,0.2,0.2,0.3,0.3,0.5c0.1,0.2,0.1,0.4,0.1,0.6c0,0.3-0.1,0.6-0.2,0.8c-0.1,0.3-0.3,0.5-0.6,0.7
	c-0.2,0.2-0.5,0.3-0.9,0.4c-0.3,0.1-0.7,0.2-1.2,0.2h-3.7V74.6z M117.4,77.8h1.2c0.2,0,0.4,0,0.5-0.1c0.2-0.1,0.3-0.1,0.4-0.3
	c0.1-0.1,0.2-0.2,0.2-0.4c0.1-0.1,0.1-0.3,0.1-0.5c0-0.2,0-0.4-0.1-0.5c-0.1-0.2-0.2-0.3-0.3-0.4c-0.1-0.1-0.3-0.2-0.6-0.3
	c-0.2-0.1-0.5-0.1-0.8-0.1h-0.7V77.8z M117.4,81.3h1c0.3,0,0.6,0,0.8-0.1c0.2-0.1,0.4-0.2,0.5-0.3c0.1-0.1,0.2-0.3,0.3-0.4
	c0.1-0.2,0.1-0.3,0.1-0.5c0-0.2,0-0.4-0.1-0.6c-0.1-0.2-0.2-0.3-0.3-0.5c-0.1-0.1-0.3-0.2-0.6-0.3c-0.2-0.1-0.5-0.1-0.8-0.1h-1V81.3
	z"/>
<polygon class="st0" points="129.2,74.6 129.2,75.2 125.5,75.2 125.5,77.7 128.6,77.7 128.6,78.3 125.5,78.3 125.5,81.3 129.2,81.3 
	129.2,82.1 123.6,82.1 123.6,74.6 "/>
<path class="st0" d="M134.3,74.4l3.5,7.7H136L135,80h-2.9l-1,2.1h-1.3l3.7-7.7H134.3z M132.4,79.3h2.3l-1.1-2.4L132.4,79.3z"/>
<path class="st0" d="M138.8,74.6h2.7c0.7,0,1.4,0.1,1.9,0.2c0.6,0.2,1.1,0.4,1.5,0.7c0.4,0.3,0.8,0.7,1,1.2c0.2,0.5,0.4,1,0.4,1.6
	c0,0.5-0.1,1-0.3,1.5c-0.2,0.5-0.5,0.9-0.9,1.2c-0.4,0.3-0.9,0.6-1.4,0.8c-0.6,0.2-1.2,0.3-1.9,0.3h-3V74.6z M140.6,81.3h1
	c0.4,0,0.7-0.1,1-0.2c0.3-0.1,0.6-0.3,0.8-0.6c0.2-0.3,0.4-0.6,0.6-1c0.1-0.4,0.2-0.8,0.2-1.3c0-0.4-0.1-0.8-0.2-1.2
	c-0.1-0.4-0.3-0.7-0.5-0.9c-0.2-0.3-0.5-0.5-0.8-0.6c-0.3-0.1-0.7-0.2-1.1-0.2h-1V81.3z"/>
<polygon class="st0" points="150.8,74.6 152.6,74.6 155.2,79.7 157.8,74.6 159.6,74.6 159.6,82.1 157.7,82.1 157.7,77.2 155.3,82.1 
	154.6,82.1 152,77.1 152,82.1 150.8,82.1 "/>
<rect x="161.5" y="74.6" class="st0" width="1.8" height="7.5"/>
<polygon class="st0" points="165.3,74.6 167.1,74.6 167.1,81.3 170.9,81.3 170.9,82.1 165.3,82.1 "/>
<polygon class="st0" points="172.1,74.6 174,74.6 174,81.3 177.8,81.3 177.8,82.1 172.1,82.1 "/>
<path class="st0" d="M181.6,82.2c-0.4,0-0.8-0.1-1.2-0.2c-0.3-0.1-0.6-0.3-0.9-0.4c-0.2-0.2-0.4-0.4-0.6-0.7
	c-0.1-0.3-0.2-0.5-0.3-0.8h1.3c0,0.2,0.1,0.4,0.2,0.5c0.1,0.2,0.2,0.3,0.3,0.4c0.1,0.1,0.3,0.2,0.5,0.3c0.2,0.1,0.4,0.1,0.6,0.1
	c0.2,0,0.3,0,0.5,0c0.2,0,0.3-0.1,0.4-0.2c0.1-0.1,0.2-0.2,0.3-0.3c0.1-0.1,0.1-0.3,0.1-0.4c0-0.2-0.1-0.4-0.2-0.6
	c-0.1-0.2-0.3-0.3-0.5-0.5c-0.2-0.1-0.4-0.3-0.6-0.4c-0.2-0.1-0.5-0.2-0.7-0.4c-0.3-0.1-0.5-0.3-0.7-0.4c-0.2-0.1-0.5-0.3-0.6-0.5
	c-0.2-0.2-0.3-0.4-0.5-0.6c-0.1-0.2-0.2-0.5-0.2-0.7c0-0.3,0.1-0.6,0.2-0.8c0.1-0.3,0.3-0.5,0.6-0.7c0.2-0.2,0.6-0.3,0.9-0.4
	c0.4-0.1,0.8-0.2,1.2-0.2c0.4,0,0.7,0.1,1,0.2c0.3,0.1,0.6,0.2,0.8,0.4c0.2,0.2,0.4,0.4,0.6,0.6c0.2,0.2,0.3,0.5,0.4,0.8h-1.2
	c-0.1-0.2-0.1-0.3-0.2-0.5c-0.1-0.2-0.2-0.3-0.3-0.4c-0.1-0.1-0.3-0.2-0.5-0.3c-0.2-0.1-0.4-0.1-0.7-0.1c-0.2,0-0.4,0-0.6,0.1
	c-0.2,0.1-0.3,0.1-0.4,0.2c-0.1,0.1-0.2,0.2-0.2,0.3c0,0.1-0.1,0.2-0.1,0.4c0,0.2,0.1,0.4,0.2,0.5c0.1,0.2,0.3,0.3,0.5,0.5
	c0.2,0.1,0.4,0.3,0.7,0.4c0.2,0.1,0.5,0.3,0.8,0.4c0.3,0.1,0.5,0.3,0.8,0.4c0.2,0.1,0.5,0.3,0.7,0.5c0.2,0.2,0.4,0.4,0.5,0.6
	c0.1,0.2,0.2,0.4,0.2,0.7c0,0.3-0.1,0.6-0.2,0.9c-0.1,0.3-0.3,0.5-0.6,0.7c-0.2,0.2-0.6,0.3-0.9,0.5
	C182.5,82.2,182.1,82.2,181.6,82.2"/>
<path class="st0" d="M213.4,34.3c-0.9,1.8-1.4,2.8-2.4,4.1c-1.8,2.4-4.2,4.3-7,5.8c-0.9,0.5-1.6,0.8-3.1,1.3
	c-0.6-0.9-1.2-1.6-2.1-2.5c4.5-1.6,7.2-3.3,9.4-6c0.8-0.9,1.3-1.7,1.8-2.7h-2.9c-1,1.3-1.6,2-2.6,3c-2.3,2.1-5,3.6-8.7,4.8
	c-0.6-1.1-0.9-1.5-2-2.6c4.4-1.2,7.5-2.9,9.5-5.2h-3.5c-1.9,1.4-3.4,2.1-5.8,3c-0.6-1.1-1-1.7-2-2.6c3.8-1.1,6.5-2.8,8.4-5.2h-1.1
	c-1.5,0-2.3,0-3.3,0.1c0.1-1,0.1-1.6,0.1-3v-5.8c0-1.4,0-2.1-0.1-3c1.1,0.1,2,0.1,3.6,0.1h13.1c1.7,0,2.6,0,3.7-0.1
	c-0.1,0.9-0.2,1.6-0.2,3v5.8c0,1.4,0,2.1,0.2,3c-1-0.1-1.9-0.1-3.4-0.1h-8.6c-0.6,0.8-0.9,1.2-1.4,1.9h13.3c1.3,0,2,0,2.5-0.1
	c-0.1,0.6-0.1,0.7-0.3,3.3c-0.1,1.4-0.4,4.7-0.6,5.9c-0.6,4-1.6,4.8-5.6,4.8c-0.7,0-1.3,0-2.9-0.2c-0.1-1.3-0.3-2.1-0.8-3.3
	c1.6,0.3,2.4,0.4,3.5,0.4c1.6,0,2-0.2,2.3-1.5c0.4-1.3,0.6-3.5,0.9-6.4H213.4z M199.4,22.5H213v-1.9h-13.6V22.5z M199.4,26.9H213
	v-1.8h-13.6V26.9z"/>
<path class="st0" d="M200.7,64.5h1.8c1.6,0,2,0,2.7-0.1c-0.1,0.8-0.1,1.2-0.1,2.8v3c0,1.6,0,2,0.1,2.7c-0.7-0.1-1.4-0.1-2.9-0.1
	h-1.6v1.8h1.8c1.6,0,2.1,0,3-0.1v2.4c1.1-1.4,2-3.3,2.7-5.4c0.8-2.4,1.1-4.6,1.3-8.2h-1.4c-1.3,0-1.8,0-2.5,0.2v-3.4
	c0.6,0.1,1.1,0.1,2.5,0.1h1.5c0-1.5,0-1.9,0-2.8c0-2,0-2.9-0.2-3.6h3.5c-0.2,0.9-0.2,1.6-0.2,4.3c0,1.1,0,1.5-0.1,2.1h4
	c1.5,0,2.2,0,3.1-0.1c-0.1,0.7-0.1,0.7-0.2,4.1c-0.2,7.2-0.6,12.9-1.2,14.9c-0.6,2-1.7,2.6-4.5,2.6c-0.7,0-1.4,0-2.9-0.2
	c-0.1-1.4-0.2-2-0.6-3.4c1.6,0.3,2.5,0.4,3.3,0.4c1,0,1.4-0.2,1.7-1c0.3-1.2,0.5-2.8,0.7-6.1c0.2-2.5,0.2-3.6,0.3-8.1h-3.7
	c-0.2,4.1-0.8,7.2-1.6,9.8c-0.8,2.4-1.8,4.5-3.1,6.2c-0.6,0.9-1.2,1.5-2.4,2.7c-0.7-1.1-1.3-1.7-2.6-2.6c0.9-0.8,1.3-1.1,1.9-1.8
	c-0.6-0.1-1.1-0.1-2.4-0.1h-1.8v1c0,1.9,0,2.6,0.2,3.7h-3.3c0.2-1.1,0.2-1.8,0.2-3.7v-1h-2.2c-1.5,0-2.3,0-3.3,0.2v-3.3
	c0.8,0.1,1.7,0.2,3.3,0.2h2.2v-1.8H196c-1.2,0-1.9,0-2.9,0.1c0.1-0.7,0.1-1.4,0.1-2.6V67c0-1.3,0-1.8-0.1-2.6
	c0.7,0.1,1.1,0.1,2.7,0.1h1.9v-1.4h-1.1c-1,0-1.1,0-2.1,0c0.1-0.6,0.1-1.3,0.1-2v-2h-0.2c-0.9,0-1.5,0-2.1,0.1v-3.1
	c0.5,0.1,1.1,0.2,2.1,0.2h0.2V56c0-0.8,0-1.5-0.1-2.1h3.3c-0.1,0.4-0.1,1.1-0.1,2v0.6h2.9v-0.6c0-0.8,0-1.5-0.1-2h3.2
	c-0.1,0.6-0.1,1.2-0.1,2.1v0.4h0.2c0.9,0,1.4,0,1.9-0.2v3.1c-0.6-0.1-1.1-0.1-1.9-0.1h-0.2v2c0,0.8,0,1.4,0.1,2c-1,0-1.3,0-2.2,0
	h-0.8V64.5z M197.8,67H196v3.4h1.7V67z M197.8,60.8h2.9v-1.6h-2.9V60.8z M202.4,67h-1.7v3.4h1.7V67z"/>
<rect x="63.2" y="37.5" class="st0" width="10.2" height="10.2"/>
<path class="st0" d="M120.3,52.2c-0.1,0.9-0.6,3.7-3.9,3.7c2,0-4,0-4,0s-3.5,0-3.9-3.4V33.2c0.4-3.4,3.9-3.4,3.9-3.4h0.8v-12H84.6
	v12h0.6c0,0,3.8,0,3.9,3.7v18.7c-0.2,3.7-3.9,3.7-3.9,3.7l-0.6,0v12h47.7v-20h-12V52.2z"/>
<path class="st0" d="M29.9,29.8c0,0,4,0,4,4v1.1v16v1.1c0,4-3.9,4-3.9,4v0v12h47.8v-16H64.6V52c-0.1,3.8-4,3.8-4,3.8h-3.5
	c0,0-3.9,0-4-3.9v-0.4c0-0.5,0.3-3.8,3.7-3.9h6.2V37.5H57c-0.8-0.1-3.7-0.5-3.7-3.9c0-0.6,0.4-3.8,4-3.8h3.5c3.5,0,3.9,3,4,3.8v0.2
	h13.1v-16H29.9V29.8z"/>
<path class="st0" d="M184.5,33.8v-16h-47.8v12c0,0,4,0,4,4v1.1v16v1.1c0,4-3.9,4-3.9,4v0v12h47.8v-16h-13.1V52c-0.1,3.8-4,3.8-4,3.8
	H164c0,0-3.9,0-4-3.9v-0.4c0-0.5,0.3-3.8,3.7-3.9h6.2V37.5h-6.1c-0.8-0.1-3.7-0.5-3.7-3.9c0-0.6,0.4-3.8,4-3.8h3.5
	c3.5,0,3.9,3,4,3.8v0.2H184.5z"/>
<rect x="169.9" y="37.5" class="st0" width="10.2" height="10.2"/>
</svg>
